<?xml version="1.0" encoding="UTF-8"?>
<svg width="623px" height="83px" viewBox="0 0 623 83" version="1.1" xmlns="http://www.w3.org/2000/svg" xmlns:xlink="http://www.w3.org/1999/xlink">
    <!-- Generator: Sketch 43.2 (39069) - http://www.bohemiancoding.com/sketch -->
    <title>archer-logo</title>
    <desc>Created with Sketch.</desc>
    <defs></defs>
    <g id="Desktop-Wireframe" stroke="none" stroke-width="1" fill="none" fill-rule="evenodd">
        <g id="Desktop-Main" transform="translate(-649.000000, -415.000000)" fill="#221F20">
            <g id="Group-4" transform="translate(649.000000, 415.000000)">
                <g id="archer-logo" style="mix-blend-mode: overlay;">
                    <path d="M34.1258959,1.54367295 L33.0054919,1.54367295 L0.333063642,80.0690593 L1.22757979,80.0690593 C1.61836589,80.0690593 1.8984669,79.9014829 2.00915198,79.5074519 L12.5603766,54.1241593 L12.5581177,54.1218948 L13.3690553,52.1358882 L13.4029385,52.0543645 L14.0150947,50.5574998 L14.0241303,50.5597644 L32.6689189,5.6945852 C33.0619638,4.85217421 33.2855929,4.23395323 33.5656939,3.39380678 C33.8457949,4.23395323 34.069424,4.85217421 34.46021,5.6945852 L53.7623325,52.1358882 L53.7555559,52.1358882 L55.0205282,55.1681149 L55.0069749,55.1749085 L65.1222358,79.5074519 C65.2329209,79.9014829 65.4565499,80.0690593 65.7931229,80.0690593 L66.800583,80.0690593 L34.1258959,1.54367295 Z" id="Fill-2" opacity="0.5"></path>
                    <path d="M140.846868,43.6103266 C140.232453,42.9377565 139.669992,42.4304983 138.942633,42.1519592 C153.993545,41.8711555 164.343729,33.9067483 164.343729,21.1754724 C164.343729,7.71274832 155.281106,1.54412586 138.942633,1.54412586 L120.817386,1.54412586 L120.817386,18.7863767 L122.161419,18.7863767 L122.161419,2.66507598 L138.942633,2.66507598 C154.443062,2.66507598 163.001955,8.38531839 163.001955,21.1754724 C163.001955,33.5149819 153.266186,41.0287445 137.937432,41.0287445 L122.161419,41.0287445 L122.161419,23.0935426 L120.817386,23.0935426 L120.817386,80.0695122 L122.161419,80.0695122 L122.161419,42.1519592 L134.357108,42.1519592 C137.433701,42.1519592 138.38469,42.5437256 139.726464,44.1719339 L169.044457,79.3946776 C169.661131,80.0695122 169.882501,80.0695122 170.499175,80.0695122 L171.393691,80.0695122 L140.846868,43.6103266 Z" id="Fill-4" opacity="0.5"></path>
                    <path d="M592.437473,43.6103266 C591.823057,42.9377565 591.262855,42.4304983 590.535496,42.1519592 C605.586408,41.8711555 615.936592,33.9067483 615.936592,21.1754724 C615.936592,7.71274832 606.873969,1.54412586 590.535496,1.54412586 L572.407991,1.54412586 L572.407991,18.7863767 L573.752024,18.7863767 L573.752024,2.66507598 L590.535496,2.66507598 C606.033666,2.66507598 614.594818,8.38531839 614.594818,21.1754724 C614.594818,33.5149819 604.859049,41.0287445 589.528036,41.0287445 L573.752024,41.0287445 L573.752024,23.0935426 L572.407991,23.0935426 L572.407991,80.0695122 L573.752024,80.0695122 L573.752024,42.1519592 L585.947713,42.1519592 C589.024306,42.1519592 589.975294,42.5437256 591.319327,44.1719339 L620.635061,79.3946776 C621.251735,80.0695122 621.475364,80.0695122 622.092038,80.0695122 L622.984295,80.0695122 L592.437473,43.6103266 Z" id="Fill-6" opacity="0.5"></path>
                    <polygon id="Fill-8" opacity="0.5" points="473.594903 78.8346554 473.594903 62.3419692 472.253129 62.3419692 472.253129 80.0688328 518.018021 80.0688328 518.130965 78.8346554"></polygon>
                    <polygon id="Fill-10" opacity="0.5" points="473.594903 18.7863767 473.594903 2.77830326 518.018021 2.77830326 518.018021 1.54412586 472.253129 1.54412586 472.253129 18.7863767"></polygon>
                    <polygon id="Fill-12" opacity="0.5" points="511.30531 39.5721887 473.595581 39.5721887 473.595581 23.0953543 472.253807 23.0953543 472.253807 58.0327652 473.595581 58.0327652 473.595581 40.8063661 511.30531 40.8063661"></polygon>
                    <polygon id="Fill-14" opacity="0.5" points="417.345424 30.9906928 418.689457 30.9906928 418.689457 1.54254068 417.345424 1.54254068"></polygon>
                    <polygon id="Fill-16" opacity="0.5" points="417.345424 80.067927 418.689457 80.067927 418.689457 49.6573429 417.345424 49.6573429"></polygon>
                    <polygon id="Fill-17" opacity="0.5" points="418.689005 45.3506299 418.689005 35.3005762 417.344972 35.3005762 417.344972 39.5715093 362.291569 39.5715093 362.291569 35.3005762 360.947536 35.3005762 360.947536 45.3506299 362.291569 45.3506299 362.291569 40.8056867 417.344972 40.8056867 417.344972 45.3506299"></polygon>
                    <polygon id="Fill-18" opacity="0.5" points="360.947988 30.9906928 362.292021 30.9906928 362.292021 1.54254068 360.947988 1.54254068"></polygon>
                    <polygon id="Fill-19" opacity="0.5" points="360.947988 80.067927 362.292021 80.067927 362.292021 49.6573429 360.947988 49.6573429"></polygon>
                    <path d="M266.48392,82.6316192 C260.479819,82.6316192 254.502825,81.2978018 248.916617,78.6482833 C228.401476,68.9220596 219.605401,44.2770088 229.309545,23.7126694 C239.011431,3.14606548 263.60159,-5.66528179 284.107695,4.0586774 C292.271284,7.93105052 298.79041,14.2015775 302.962559,22.1999529 C303.145529,22.553222 303.012255,22.9857503 302.662129,23.1691785 C302.314261,23.3548712 301.878297,23.2167339 301.695328,22.8657293 C297.667747,15.1481576 291.374509,9.09049792 283.495539,5.35626208 C263.696463,-4.0348089 239.969196,4.47761835 230.603883,24.3263613 C221.23857,44.1773688 229.729697,67.9618922 249.526514,77.3506986 C259.117715,81.9001709 269.901604,82.4300746 279.892627,78.8475633 C289.88139,75.265052 297.88234,67.9958604 302.41817,58.3805994 C303.382711,56.3379792 304.177836,54.2047771 304.780957,52.042136 C304.887125,51.6616923 305.282428,51.4397668 305.664179,51.5439359 C306.04593,51.6503696 306.265041,52.0489296 306.158874,52.4293733 C305.535423,54.669009 304.710932,56.8792056 303.712507,58.9942913 C299.014039,68.9560277 290.723952,76.4879067 280.373768,80.1994971 C275.844715,81.8254409 271.155282,82.6316192 266.48392,82.6316192" id="Fill-20"></path>
                    <path d="M303.475325,26.9468936 C303.732837,26.3988735 304.385653,26.1633608 304.934561,26.4237835 C305.48121,26.6842063 305.713874,27.33866 305.456362,27.88668 C305.196591,28.4347001 304.543775,28.6702129 303.994867,28.4097901 C303.448219,28.1493673 303.215554,27.4949136 303.475325,26.9468936" id="Fill-21"></path>
                    <path d="M251.04674,40.0586131 C251.193567,38.2424475 251.615977,36.4240173 252.438209,34.6803171 C254.215947,30.9121131 257.351271,28.0633146 261.265909,26.6592963 C265.180547,25.255278 269.40691,25.4636162 273.167943,27.2458136 C276.926718,29.0280111 279.768388,32.1712005 281.168893,36.0956582 C281.631964,37.3909783 281.853334,38.7225312 281.966278,40.0586131 L283.393889,40.0586131 C283.278686,38.5594839 283.036986,37.0671483 282.519703,35.6110454 C280.988183,31.3265249 277.886742,27.8934737 273.777841,25.9482289 C269.675716,24.0007196 265.060826,23.7742651 260.784768,25.3073625 C256.508709,26.8404599 253.084249,29.9519457 251.143871,34.0666252 C250.229025,36.0073409 249.759179,38.0341093 249.605575,40.0586131 L251.04674,40.0586131 Z" id="Fill-22"></path>
                    <path d="M281.850397,43.5947012 C281.626768,45.1074177 281.254053,46.6042824 280.583166,48.0264171 C278.805428,51.7946212 275.672363,54.6456842 271.755466,56.047438 C267.836311,57.4514563 263.612207,57.2431181 259.855691,55.4609206 C254.969735,53.1465549 251.852482,48.590289 251.120605,43.5947012 L249.692993,43.5947012 C250.436165,49.1292509 253.842554,54.1995687 259.241276,56.7585053 C261.552109,57.8545454 264.018805,58.40483 266.499054,58.40483 C268.430396,58.40483 270.366256,58.0719418 272.236607,57.4016363 C276.512666,55.8685388 279.937127,52.7547885 281.879763,48.6423736 C282.643264,47.0254879 283.061156,45.320285 283.291562,43.5947012 L281.850397,43.5947012 Z" id="Fill-23"></path>
                </g>
            </g>
        </g>
    </g>
</svg>